<svg width="24" height="23" viewBox="0 0 24 23" fill="none" xmlns="http://www.w3.org/2000/svg">
<path d="M0.791992 22.9999V-0.00805664H19.192C20.0453 -0.00805664 20.8133 0.205276 21.496 0.631943C22.2 1.03728 22.7653 1.59194 23.192 2.29594C23.6187 2.99994 23.832 3.76794 23.832 4.59994V10.6799C23.832 11.5119 23.6187 12.2799 23.192 12.9839C22.7653 13.6666 22.2 14.2213 21.496 14.6479C20.8133 15.0533 20.0453 15.2559 19.192 15.2559L5.39999 15.2879V22.9999H0.791992ZM5.59199 10.6159H18.968C19.032 10.6159 19.0747 10.6053 19.096 10.5839C19.1387 10.5413 19.16 10.4986 19.16 10.4559V4.79194C19.16 4.72794 19.1387 4.68528 19.096 4.66394C19.0747 4.62128 19.032 4.59994 18.968 4.59994H5.59199C5.52799 4.59994 5.47466 4.62128 5.43199 4.66394C5.41066 4.68528 5.39999 4.72794 5.39999 4.79194V10.4559C5.39999 10.4986 5.41066 10.5413 5.43199 10.5839C5.47466 10.6053 5.52799 10.6159 5.59199 10.6159Z" fill="url(#paint0_linear_45_78)"/>
<defs>
<linearGradient id="paint0_linear_45_78" x1="12" y1="-9.00006" x2="12" y2="30.9999" gradientUnits="userSpaceOnUse">
<stop offset="0.140057"/>
<stop offset="0.765057" stop-color="#3399FF"/>
</linearGradient>
</defs>
</svg>
